HIERARCHY
ROOT Hips
{
	OFFSET 0.000000 0.000000 0.000000
	CHANNELS 6 Xposition Yposition Zposition Zrotation Yrotation Xrotation 
	JOINT LHipJoint
	{
		OFFSET 0.000000 0.000000 0.000000
		CHANNELS 3 Zrotation Yrotation Xrotation
		JOINT LeftUpLeg
		{
			OFFSET 1.363060 -1.794630 0.839290
			CHANNELS 3 Zrotation Yrotation Xrotation
			JOINT LeftLeg
			{
				OFFSET 2.448110 -6.726130 0.000000
				CHANNELS 3 Zrotation Yrotation Xrotation
				JOINT LeftFoot
				{
					OFFSET 2.562200 -7.039590 0.000000
					CHANNELS 3 Zrotation Yrotation Xrotation
					JOINT LeftToeBase
					{
						OFFSET 0.157640 -0.433110 2.322550
						CHANNELS 3 Zrotation Yrotation Xrotation
						End Site
						{
							OFFSET 0.000000 0.000000 0.000000
						}
					}
				}
			}
		}
	}
	JOINT RHipJoint
	{
		OFFSET 0.000000 0.000000 0.000000
		CHANNELS 3 Zrotation Yrotation Xrotation
		JOINT RightUpLeg
		{
			OFFSET -1.305520 -1.794630 0.839290
			CHANNELS 3 Zrotation Yrotation Xrotation
			JOINT RightLeg
			{
				OFFSET -2.542530 -6.985550 0.000000
				CHANNELS 3 Zrotation Yrotation Xrotation
				JOINT RightFoot
				{
					OFFSET -2.568260 -7.056230 0.000000
					CHANNELS 3 Zrotation Yrotation Xrotation
					JOINT RightToeBase
					{
						OFFSET -0.164730 -0.452590 2.363150
						CHANNELS 3 Zrotation Yrotation Xrotation
						End Site
						{
							OFFSET 0.000000 0.000000 0.000000
						}
					}
				}
			}
		}
	}
}
MOTION
Frames: 33
Frame Time: 0.008333
-9.735494 16.691599 -0.325674 6.722815 87.263737 26.260851 -9.391779 -0.643193 2.390363 -10.166678 -6.698676 -47.603919 -1.732862 0.854105 23.752198 0.721114 4.157824 4.291633 1.288700 -0.000000 -25.943400 10.170750 -3.051555 -2.577804 3.128913 -7.136212 -1.767419 1.620703 -2.196902 26.585931 0.953268 12.371879 8.553132 3.008500 0.000001 -84.734200
-9.541517 16.706261 -0.335168 10.661239 87.270033 30.095516 -9.338386 -0.680061 2.258074 -10.597879 -6.634144 -47.177298 -1.714288 0.882302 24.945829 0.778240 4.433827 3.224846 1.255500 -0.000000 -24.890300 10.425704 -3.143833 -2.606916 2.473690 -7.623939 -2.915865 1.372136 -2.466013 29.230545 0.839084 12.769395 10.842598 3.643900 0.000001 -84.734800
-9.350782 16.722795 -0.346764 13.274538 87.190668 32.584815 -9.275589 -0.677895 2.127749 -11.023601 -6.505058 -46.631469 -1.713773 0.898127 25.935983 0.841164 4.705107 2.050814 1.198700 0.000000 -24.304500 10.670083 -3.178404 -2.644966 1.873144 -8.099741 -4.105692 1.107885 -2.698548 31.925179 0.686180 12.891446 13.165178 4.239900 -0.000000 -83.977900
-9.163149 16.741179 -0.360529 14.874519 87.051009 34.048802 -9.219663 -0.650532 2.003416 -11.430193 -6.331279 -45.977869 -1.727636 0.902440 26.721408 0.905395 4.952785 0.834421 1.119301 0.000000 -24.128300 10.887165 -3.164592 -2.689594 1.340880 -8.548135 -5.330163 0.840661 -2.896897 34.641690 0.499572 12.670722 15.437053 4.718200 -0.000000 -82.454100
-8.978527 16.761515 -0.376293 15.735295 86.873061 34.767459 -9.176564 -0.607401 1.887379 -11.807228 -6.129281 -45.228585 -1.752223 0.895668 27.305904 0.966400 5.162469 -0.361731 1.022200 -0.000001 -24.275600 11.072265 -3.111094 -2.738434 0.885225 -8.959129 -6.582905 0.581602 -3.065366 37.351976 0.286199 12.062718 17.567601 4.999800 0.000000 -80.255800
-8.796756 16.783979 -0.393528 16.206895 86.678236 35.093870 -9.142144 -0.555101 1.779439 -12.157791 -5.918977 -44.386943 -1.784512 0.876648 27.691078 1.020954 5.332508 -1.479553 0.916700 -0.000000 -24.638800 11.232613 -3.026457 -2.790126 0.497617 -9.331932 -7.856501 0.339927 -3.210979 40.027445 0.053638 11.058372 19.466303 5.024601 -0.000000 -77.582200
-8.617682 16.808743 -0.412216 16.281334 86.470793 35.025313 -9.121155 -0.496059 1.681277 -12.467876 -5.700950 -43.476996 -1.820813 0.848586 27.894748 1.066522 5.457045 -2.480567 0.809600 -0.000000 -25.104900 11.363026 -2.916669 -2.841410 0.193047 -9.647356 -9.142955 0.119269 -3.337617 42.637166 -0.189919 9.668899 21.052614 4.757101 -0.000000 -74.716800
-8.441103 16.836008 -0.432040 16.063908 86.258393 34.670532 -9.112812 -0.432775 1.592248 -12.735681 -5.479575 -42.512994 -1.858408 0.812943 27.931853 1.102191 5.541511 -3.338102 0.708900 0.000000 -25.569800 11.465724 -2.788885 -2.889802 -0.028000 -9.894739 -10.435462 -0.078809 -3.450731 45.153456 -0.436359 7.951745 22.258750 4.206200 0.000000 -71.945400
-8.266952 16.865960 -0.452588 15.689750 86.048010 34.164914 -9.113452 -0.367205 1.510089 -12.966827 -5.259839 -41.501162 -1.895489 0.770237 27.814015 1.128811 5.599754 -4.039182 0.620601 -0.000000 -25.952900 11.546160 -2.649956 -2.933814 -0.174024 -10.068100 -11.726371 -0.254702 -3.556080 47.552618 -0.677293 6.004160 23.035132 3.425200 -0.000000 -69.489300
-8.095108 16.898604 -0.473746 15.154678 85.841820 33.506487 -9.124334 -0.300241 1.433776 -13.158936 -5.038762 -40.455292 -1.930413 0.722469 27.559301 1.147877 5.642756 -4.587918 0.547500 0.000000 -26.206200 11.603888 -2.505726 -2.971546 -0.243227 -10.159032 -13.011722 -0.411231 -3.656678 49.815732 -0.903810 3.945972 23.355754 2.498800 0.000000 -67.465100
-7.925442 16.933877 -0.495312 14.496735 85.643017 32.733234 -9.144396 -0.232651 1.361637 -13.314663 -4.815829 -39.381543 -1.962402 0.670567 27.181925 1.161738 5.684284 -4.998572 0.490200 0.000000 -26.313700 11.641262 -2.361278 -3.002394 -0.241056 -10.167671 -14.287661 -0.551241 -3.754934 51.927986 -1.106995 1.912886 23.220999 1.531100 -0.000000 -65.888500
-7.757827 16.971520 -0.517373 13.679269 85.453116 31.810276 -9.175378 -0.164700 1.293347 -13.430859 -4.587238 -38.291501 -1.990908 0.616211 26.700588 1.172473 5.731883 -5.295820 0.446900 -0.000000 -26.286800 11.657339 -2.220194 -3.025423 -0.165621 -10.094986 -15.553651 -0.677642 -3.850348 53.876185 -1.278741 0.031756 22.661410 0.622700 0.000001 -64.731100
-7.592244 17.011199 -0.539750 12.766099 85.276778 30.797954 -9.214058 -0.096839 1.227023 -13.514959 -4.356346 -37.180648 -2.016326 0.559083 26.123476 1.182414 5.795678 -5.504466 0.415600 0.000000 -26.156400 11.656632 -2.084769 -3.041962 -0.030262 -9.953292 -16.803944 -0.791144 -3.943076 55.648312 -1.412053 -1.583956 21.731433 -0.141900 0.000000 -63.894400
-7.428467 17.052361 -0.562608 11.712352 85.116056 29.653130 -9.261602 -0.028934 1.163399 -13.563451 -4.122195 -36.057314 -2.038732 0.500370 25.467205 1.192504 5.874129 -5.652750 0.392500 0.000000 -25.966001 11.638557 -1.955692 -3.051632 0.165734 -9.751019 -18.037797 -0.891938 -4.029887 57.232365 -1.502492 -2.860300 20.511443 -0.713600 0.000001 -63.323200
-7.266387 17.094485 -0.585967 10.533600 84.974714 28.389168 -9.316133 0.039003 1.102176 -13.579331 -3.888388 -34.919969 -2.058632 0.440228 24.741790 1.203092 5.964360 -5.762679 0.374800 0.000000 -25.763300 11.605768 -1.832391 -3.055650 0.413729 -9.503500 -19.249992 -0.978409 -4.108323 58.617082 -1.548223 -3.757220 19.094990 -1.076200 0.000000 -62.949600
-7.105858 17.136941 -0.609846 9.224302 84.855939 26.999749 -9.376383 0.107146 1.043891 -13.563148 -3.658657 -33.770113 -2.076342 0.379189 23.958701 1.213374 6.057441 -5.849996 0.359900 -0.000001 -25.595300 11.560182 -1.713393 -3.054910 0.708131 -9.225640 -20.436637 -1.048548 -4.175546 59.793369 -1.550653 -4.274273 17.580387 -1.245900 -0.000000 -62.714700
-6.946674 17.179132 -0.634282 7.775343 84.762767 25.475301 -9.440920 0.175853 0.989372 -13.516074 -3.436632 -32.610906 -2.092107 0.317992 23.130053 1.221631 6.140542 -5.922741 0.346101 0.000000 -25.501501 11.503846 -1.596648 -3.050036 1.044118 -8.932212 -21.595104 -1.100532 -4.229052 60.754141 -1.514763 -4.446533 16.064038 -1.260700 0.000000 -62.590300
-6.788487 17.220545 -0.659198 6.188688 84.698472 23.821670 -9.507537 0.245624 0.941784 -13.439316 -3.231107 -31.451979 -2.105796 0.257163 22.267880 1.226074 6.202129 -5.980173 0.333200 -0.000000 -25.505800 11.439442 -1.480407 -3.040579 1.417291 -8.637811 -22.730309 -1.133293 -4.267623 61.500220 -1.447669 -4.331933 14.617294 -1.166701 0.000000 -62.417600
-6.631736 17.260669 -0.684430 4.456026 84.663102 22.013164 -9.575502 0.316043 0.891878 -13.337618 -3.025069 -30.273419 -2.118518 0.198647 21.381115 1.222383 6.218452 -6.016777 0.320300 -0.000000 -25.637200 11.369173 -1.362126 -3.032691 1.818866 -8.354255 -23.812487 -1.146800 -4.290794 62.020340 -1.360737 -4.016052 13.320365 -1.014400 -0.000000 -62.465300
-6.475405 17.299186 -0.709712 2.591691 84.661095 20.087729 -9.641312 0.388260 0.852421 -13.212562 -2.844207 -29.116618 -2.129134 0.142283 20.488164 1.210626 6.189301 -6.021875 0.309700 0.000001 -25.868700 11.295755 -1.241852 -3.018504 2.250837 -8.087624 -24.879528 -1.142258 -4.298861 62.331725 -1.263281 -3.579132 12.187083 -0.840900 -0.000000 -62.380400
-6.320240 17.335755 -0.734904 0.540889 84.688360 17.964949 -9.706019 0.461729 0.808740 -13.066067 -2.654725 -27.954781 -2.139160 0.091239 19.599651 1.186062 6.088328 -5.987368 0.300600 -0.000000 -26.209700 11.220021 -1.118168 -3.006464 2.707758 -7.841928 -25.888693 -1.121415 -4.292631 62.427018 -1.166361 -3.109833 11.242566 -0.677700 -0.000000 -62.439900
-6.165467 17.370281 -0.759498 -1.633227 84.748979 15.727146 -9.765604 0.536566 0.769700 -12.906704 -2.477894 -26.819790 -2.147981 0.044782 18.730251 1.150345 5.925120 -5.903451 0.295200 -0.000000 -26.605400 11.144738 -0.992587 -2.989656 3.183903 -7.616293 -26.870584 -1.085856 -4.274524 62.324099 -1.077195 -2.674173 10.459565 -0.542000 0.000000 -62.448500
-6.011209 17.402576 -0.783166 -3.920477 84.842255 13.379391 -9.819334 0.612026 0.731068 -12.740704 -2.304358 -25.711953 -2.156268 0.003892 17.891922 1.103409 5.698167 -5.767984 0.293100 -0.000001 -27.023700 11.070590 -0.866194 -2.968836 3.671628 -7.407191 -27.816811 -1.036951 -4.246672 62.029554 -1.001366 -2.325140 9.808741 -0.444400 -0.000000 -62.487200
-5.857396 17.432565 -0.805570 -6.289606 84.967676 10.954106 -9.866331 0.687296 0.691734 -12.575149 -2.133483 -24.636394 -2.164303 -0.031346 17.094382 1.047173 5.416712 -5.583616 0.293800 -0.000000 -27.428100 10.997766 -0.740576 -2.942927 4.161567 -7.208972 -28.728293 -0.975413 -4.211342 61.553964 -0.941153 -2.090939 9.244496 -0.387900 0.000000 -62.538200
-5.704055 17.460263 -0.826494 -8.724644 85.123142 8.465247 -9.906341 0.761408 0.649215 -12.415587 -1.962768 -23.592700 -2.172342 -0.060913 16.343594 0.984242 5.093381 -5.358324 0.296000 -0.000000 -27.794400 10.925794 -0.616743 -2.912209 4.644068 -7.015228 -29.601906 -0.901324 -4.170354 60.907061 -0.896224 -1.977279 8.718066 -0.369600 -0.000001 -62.568700
-5.551102 17.485549 -0.845725 -11.170787 85.308524 5.971667 -9.938988 0.833399 0.605249 -12.269455 -1.800451 -22.586366 -2.180368 -0.085858 15.644381 0.918496 4.748401 -5.106051 0.298601 -0.000000 -28.104400 10.853810 -0.496037 -2.874289 5.107087 -6.819852 -30.445044 -0.814467 -4.125146 60.100283 -0.864613 -1.971283 8.190371 -0.382600 0.000000 -62.570699
-5.398564 17.508425 -0.863251 -13.623451 85.520309 3.477118 -9.964333 0.902403 0.558406 -12.139762 -1.650085 -21.611541 -2.188224 -0.106848 14.995601 0.853458 4.400704 -4.842942 0.300200 -0.000001 -28.360100 10.780901 -0.378267 -2.830029 5.541059 -6.617738 -31.255579 -0.714308 -4.076342 59.142061 -0.842867 -2.044702 7.631651 -0.416899 -0.000000 -62.501000
-5.246388 17.528784 -0.879097 -16.058059 85.757009 1.010125 -9.982264 0.967885 0.511752 -12.029742 -1.523856 -20.670322 -2.195592 -0.125274 14.396490 0.792651 4.070239 -4.587224 0.300401 -0.000000 -28.573600 10.706127 -0.263586 -2.777178 5.937037 -6.405091 -32.042018 -0.600625 -4.023950 58.041789 -0.827283 -2.162599 7.032030 -0.461201 0.000000 -62.348600
-5.094584 17.546538 -0.893464 -18.506370 86.013518 -1.461526 -9.992485 1.029293 0.464694 -11.939207 -1.428355 -19.753725 -2.202157 -0.142044 13.840243 0.738434 3.771425 -4.353946 0.298800 -0.000000 -28.773200 10.629289 -0.150893 -2.716994 6.289139 -6.180509 -32.803102 -0.473322 -3.967591 56.805964 -0.814065 -2.288721 6.395599 -0.505200 -0.000000 -62.071199
-4.943101 17.561590 -0.906582 -21.012718 86.287173 -3.978454 -9.994503 1.086397 0.420449 -11.867030 -1.375877 -18.861556 -2.207468 -0.158389 13.323040 0.692513 3.515393 -4.156531 0.295600 -0.000000 -28.988900 10.550325 -0.039986 -2.647720 6.594800 -5.943592 -33.545771 -0.333094 -3.906389 55.440088 -0.800627 -2.396100 5.746728 -0.542500 0.000000 -61.704700
-4.791915 17.573822 -0.918711 -23.670811 86.573511 -6.633620 -9.987726 1.138906 0.379698 -11.810314 -1.372719 -17.988014 -2.211291 -0.175052 12.838816 0.655167 3.305150 -4.002058 0.291300 0.000000 -29.256400 10.469820 0.069393 -2.569344 6.854249 -5.695311 -34.270270 -0.181078 -3.839422 53.947148 -0.785389 -2.468587 5.117188 -0.570400 0.000001 -61.271200
-4.640969 17.583118 -0.930112 -26.627209 86.868444 -9.572981 -9.971463 1.186432 0.342982 -11.765633 -1.422618 -17.129428 -2.213604 -0.192606 12.382636 0.625603 3.136933 -3.892488 0.286000 0.000000 -29.606700 10.388659 0.176741 -2.481272 7.070076 -5.436574 -34.976161 -0.018953 -3.765712 52.328233 -0.768316 -2.504705 4.542401 -0.590500 0.000000 -60.817200
-4.490200 17.589389 -0.940989 -30.099592 87.168498 -13.012664 -9.945114 1.228480 0.310431 -11.729564 -1.525180 -16.286025 -2.214712 -0.211317 11.953549 0.602056 3.000320 -3.825272 0.279700 0.000000 -30.058400 10.307826 0.280455 -2.382107 7.247055 -5.167573 -35.662205 0.151356 -3.684259 50.582617 -0.750853 -2.516515 4.052924 -0.607700 0.000000 -60.397899
